<?xml version="1.0" encoding="iso-8859-1"?>
<!-- Uploaded to: SVG Repo, www.svgrepo.com, Generator: SVG Repo Mixer Tools -->
<svg fill="#000000" height="800px" width="800px" version="1.1" id="Layer_1" xmlns="http://www.w3.org/2000/svg" xmlns:xlink="http://www.w3.org/1999/xlink" 
	 viewBox="0 0 512 512" xml:space="preserve">
<g>
	<g>
		<path d="M256,0C114.841,0,0,114.836,0,256c0,141.163,114.841,256,256,256s256-114.837,256-256C512,114.836,397.159,0,256,0z
			 M256.085,492.308c-58.056,0-111.366-21.058-152.549-55.923c24.557-17.565,57.713-30.75,93.81-37.404
			c4.673-0.865,8.404-4.933,8.404-9.683v-39.971c0-4.769-3.755-8.846-8.447-9.692c-49.851-8.962-82.363-28.029-96.05-37.539
			c18.115-22.837,64.515-84.414,64.515-115.019c0-48.865,39.713-88.615,88.573-88.615s88.594,39.75,88.594,88.615
			c0,30.452,46.725,91.712,64.869,114.346c-13.524,9.673-45.415,29.144-95.828,38.221c-4.688,0.846-7.764,4.923-7.764,9.692v39.961
			c0,4.75,3.048,8.827,7.721,9.683c37.028,6.822,70.389,20.483,95.143,38.724C366.113,471.784,313.41,492.308,256.085,492.308z
			 M422.089,424.255c-25.965-20.084-61.262-34.877-98.185-43.043v-23.75c68.923-14.279,103.385-45.865,104.889-47.25
			c3.851-3.558,4.065-9.51,0.709-13.538c-25.798-30.952-66.811-88.086-66.811-109.596c0-59.721-48.63-108.308-108.35-108.308
			c-59.721,0-108.329,48.587-108.329,108.308c0,21.692-40.818,79.26-66.54,110.452c-3.365,4.086-2.567,10.096,1.374,13.615
			c1.519,1.356,36.289,32.212,105.212,46.308v23.76c-39.385,7.964-71.25,22.238-96.96,41.57
			C46.443,380.012,19.863,321.031,19.863,256c0-130.298,105.924-236.308,236.222-236.308S492.52,125.702,492.52,256
			C492.52,321.786,465.617,381.368,422.089,424.255z"/>
	</g>
</g>
</svg>