<?xml version="1.0" encoding="iso-8859-1"?>
<!-- Uploaded to: SVG Repo, www.svgrepo.com, Generator: SVG Repo Mixer Tools -->
<svg fill="#000000" height="800px" width="800px" version="1.1" id="Layer_1" xmlns="http://www.w3.org/2000/svg" xmlns:xlink="http://www.w3.org/1999/xlink" 
	 viewBox="0 0 512 512" xml:space="preserve">
<g>
	<g>
		<path d="M509.293,422.101l-91.253-91.247l39.905-39.903c3.61-3.61,3.61-9.46,0-13.07c-3.61-3.61-9.458-3.61-13.067,0
			l-30.392,30.392l-84.025-87.192l90.403-87.107c1.299-1.254,2.211-2.87,2.608-4.65l18.482-83.167
			c0.668-3.014-0.217-6.161-2.346-8.393c-2.139-2.236-5.243-3.237-8.275-2.716L352.83,48.867c-1.877,0.332-3.592,1.227-4.936,2.572
			l-92.129,92.126l-84.169-87.343c-1.254-1.299-2.87-2.211-4.647-2.608L83.781,35.132c-3.014-0.641-6.154,0.214-8.393,2.344
			c-2.229,2.132-3.249,5.245-2.716,8.277l13.816,78.5c0.334,1.877,1.227,3.594,2.572,4.936l90.743,90.743
			c-0.618,0.377-1.211,0.808-1.746,1.34l-82.419,82.421l-35.05-35.053c-3.61-3.61-9.458-3.61-13.067,0c-3.61,3.61-3.61,9.46,0,13.07
			l46.439,46.436L2.707,419.394C0.975,421.127,0,423.473,0,425.927s0.975,4.801,2.707,6.534l39.21,39.208
			c1.805,1.807,4.169,2.71,6.534,2.71c2.364,0,4.729-0.902,6.534-2.71l91.249-91.246l39.901,39.901
			c1.805,1.803,4.169,2.705,6.534,2.705c2.365,0,4.729-0.903,6.534-2.705c3.61-3.61,3.61-9.46,0-13.07l-30.391-30.391l85.514-82.41
			l86.992,86.992l-35.05,35.05c-3.61,3.61-3.61,9.46,0,13.07c1.805,1.802,4.169,2.705,6.534,2.705c2.364,0,4.729-0.903,6.534-2.705
			l46.434-46.434l91.249,91.249c1.805,1.805,4.169,2.707,6.533,2.707c2.365,0,4.729-0.903,6.534-2.707l39.21-39.21
			c1.733-1.733,2.707-4.081,2.707-6.534C512,426.178,511.025,423.834,509.293,422.101z M358.904,66.573l62.006-10.919
			l-14.881,66.951l-88.39,85.166l-49.047-50.895L358.904,66.573z M48.451,452.071l-26.143-26.143l84.72-84.713l26.139,26.139
			L48.451,452.071z M155.738,363.793l-1.34-1.342c-0.39-0.659-0.835-1.293-1.401-1.859c-0.566-0.569-1.202-1.013-1.861-1.403
			l-35.93-35.928c-0.39-0.668-0.837-1.309-1.41-1.881c-0.573-0.571-1.214-1.02-1.879-1.41l-3.21-3.21l82.419-82.416
			c0.535-0.535,0.963-1.128,1.34-1.746l48.787,48.785L155.738,363.793z M360.864,361.896c-0.659,0.39-1.295,0.835-1.861,1.403
			c-0.566,0.566-1.013,1.2-1.401,1.859l-3.22,3.222l-250.188-250.2L93.275,56.177l66.951,14.881l241.189,250.288l-1.331,1.331
			c-0.666,0.39-1.309,0.839-1.879,1.41c-0.573,0.573-1.02,1.214-1.41,1.882L360.864,361.896z M463.549,454.776l-84.715-84.715
			l26.139-26.139l84.72,84.713L463.549,454.776z"/>
	</g>
</g>
</svg>